<?xml version="1.0" standalone="no"?>
<!DOCTYPE svg PUBLIC "-//W3C//DTD SVG 20010904//EN"
 "http://www.w3.org/TR/2001/REC-SVG-20010904/DTD/svg10.dtd">
<svg version="1.0" xmlns="http://www.w3.org/2000/svg"
 width="270.000000pt" height="270.000000pt" viewBox="0 0 270.000000 270.000000"
 preserveAspectRatio="xMidYMid meet">
<metadata>
Created by potrace 1.11, written by Peter Selinger 2001-2013
</metadata>
<g transform="translate(0.000000,270.000000) scale(0.100000,-0.100000)"
fill="#000000" stroke="none">
<path d="M1219 2696 c-2 -2 -26 -6 -54 -10 -195 -24 -392 -100 -580 -224 -95
-63 -288 -258 -353 -357 -165 -250 -233 -490 -227 -790 5 -204 41 -363 124
-540 180 -384 563 -681 969 -751 12 -2 34 -7 50 -10 15 -3 90 -7 167 -9 229
-6 411 31 615 127 382 180 664 545 747 966 24 122 24 375 0 500 -105 546 -521
964 -1072 1078 -69 14 -375 30 -386 20z"/>
</g>
</svg>
